<svg id="Layer_1" data-name="Layer 1" xmlns="http://www.w3.org/2000/svg" viewBox="0 0 220 220"><defs><style>.cls-1{fill:#005175;}.cls-2{fill:#005e7f;}</style></defs><title>fav</title><path class="cls-1" d="M65,39A18,18,0,1,0,47,21,18,18,0,0,0,65,39"/><path class="cls-1" d="M20.17,39a18,18,0,1,0-18-18,18,18,0,0,0,18,18"/><path class="cls-1" d="M204.61,92.34l-23.5.29.11,56.61a32.39,32.39,0,0,1-.22,3.43,30.28,30.28,0,0,1-16.41,24.65,32.41,32.41,0,0,1-16.08,4.29H114v9.18A26.24,26.24,0,0,0,140.19,217h15.24a61.73,61.73,0,0,0,61.65-61.66V104.65a12.31,12.31,0,0,0-12.47-12.31"/><path class="cls-2" d="M193.56,3H142.47a24.24,24.24,0,0,0-24.24,24.24V39h59.48a4.15,4.15,0,0,1,4.14,4.14v.54a4.14,4.14,0,0,1-4.14,4.14H113.43A21.67,21.67,0,0,0,91.76,69.46v67.91H83V65.7A17.91,17.91,0,0,0,65,47.79H23.85A21.67,21.67,0,0,0,2.18,69.46V152A21.06,21.06,0,0,0,23.24,173.1H47v15.44A28.47,28.47,0,0,0,75.55,217H88.7a20.89,20.89,0,0,0,20.89-20.89v-14.5H82.9V173.1h68.15c3.46,0,6.72-1.59,9.62-3a24.54,24.54,0,0,0,12.1-18.26c0-.45.07-.89.07-1.35V106.17a13.59,13.59,0,0,0-13.59-13.59H127.74V83.76h69a21.08,21.08,0,0,0,21.08-21.08V27.25A24.26,24.26,0,0,0,193.56,3M47,133.23a4.14,4.14,0,0,1-4.13,4.14h-.55a4.14,4.14,0,0,1-4.13-4.14V87.9a4.13,4.13,0,0,1,4.13-4.14h.55A4.13,4.13,0,0,1,47,87.9Zm84.9-4.68h.68a4.13,4.13,0,0,1,4.13,4.14v.54a4.13,4.13,0,0,1-4.13,4.14h-.68a4.14,4.14,0,0,1-4.13-4.14v-.54a4.13,4.13,0,0,1,4.13-4.14"/></svg>