<svg version="1.2" xmlns="http://www.w3.org/2000/svg" viewBox="0 0 1102 528" width="1102" height="528">
	<title>شعار تراحم-ai</title>
	<defs>
		<clipPath clipPathUnits="userSpaceOnUse" id="cp1">
			<path d="m1025.34 3.42c2.06 13.39 4.14 26.13 4.14 38.67 0 13.56-2.43 26.87-9.97 40.47-13.69 24.67-37.87 36.36-63.4 45.6 0.57-32.82 18.63-65.25 45.12-84.13-25.08 13.64-49.53 37.23-55.88 65.87-1.38-5.74-2.11-11.78-2.12-17.84q0-2.67 0.19-5.33c1.32-4.13 2.98-8.01 4.92-11.7 1.91-3.69 4.14-7.15 6.6-10.35 2.48-3.21 5.21-6.1 8.28-8.71 3.11-2.71 6.38-5.26 9.71-7.78 6.66-5.02 13.74-9.78 20.5-15.17 6.74-5.4 13.13-11.42 18.33-18.34q0.01 0 0.01 0 0 0 0-0.01c4.68-3.44 9.22-7.15 13.57-11.25zm-75.69 59.68q-0.58 1.13-1.11 2.32 0.53-1.19 1.11-2.32zm-1.22 2.58q-0.02 0.04-0.04 0.09c-2.8 6.46-4.41 13.51-4.95 20.67 0.54-7.16 2.15-14.21 4.95-20.67q0.02-0.05 0.04-0.09zm0.08-0.19q-0.04 0.09-0.08 0.19 0.04-0.1 0.08-0.19zm0 0q0.01-0.02 0.02-0.03 0-0.01 0.01-0.03 0 0 0 0-0.01 0.03-0.03 0.06zm1.15-2.41q0.01-0.01 0.01-0.02 0 0.01-0.01 0.02zm0.09-0.16z"/>
		</clipPath>
		<clipPath clipPathUnits="userSpaceOnUse" id="cp2">
			<path d="m1011.76 14.68c-5.2 6.92-11.59 12.94-18.33 18.34-6.76 5.39-13.84 10.15-20.5 15.17-3.33 2.52-6.6 5.07-9.71 7.78-3.07 2.61-5.8 5.5-8.28 8.71-2.46 3.2-4.69 6.66-6.6 10.35-1.94 3.69-3.6 7.57-4.92 11.7v-0.03q0.01-0.13 0.02-0.26c0.54-7.16 2.15-14.21 4.95-20.67q0.64-1.46 1.35-2.84 0-0.01 0-0.01 0 0 0.01 0c6.3-12.18 16.92-19.39 28.56-26.63 11.47-7.14 22.82-13.75 33.45-21.61z"/>
		</clipPath>
	</defs>
	<style>
		.s0 { fill: #0a4d71 } 
	</style>
	<g id="Layer 1">
		<g id="&lt;Clip Group&gt;">
			<path id="&lt;Path&gt;" class="s0" d="m1040.1 305.9c-7.9 4.6-16.7 8.9-26.7 12.8q-4 1.6-8.2 3.1c-70.3 24.8-74.8 145-79.7 177-0.1 0.6-0.8 0.7-1 0-6.6-35.1-8.7-164.3 66.8-205.7q5.3-2.9 11-5.2 9.6-3.8 17.9-7.6c66.8-31 77.6-66 79.3-77.8v-0.5l0.2-0.1 0.2 0.1v0.5c0.6 34.7-10.5 74.8-59.8 103.4z"/>
			<path id="&lt;Path&gt;" class="s0" d="m1001.2 285.1q-6.2 2.4-12 5.7c-12.6-14.2-25-28.5-34.3-45-24.1-42.8-25-94.5-6.3-139.3 2.8-6.8 6.9-13.6 11.2-19.5 0.2-0.3 2.7-3.9 3.4-3.5 0.6 0.4-1.3 4.4-1.4 4.6-10.4 24.9-12.7 53.5-8.4 79.9 3.8 23.8 13.3 45.9 27.2 65.4 11.3 15.8 24.8 29.9 37.5 44.5q-8 3.7-16.9 7.2z"/>
			<path id="&lt;Path&gt;" class="s0" d="m1051.1 420c-2.9 6.8-6.9 13.5-11.3 19.5 0 0-2.6 3.9-3.3 3.5-0.7-0.4 1.4-4.7 1.4-4.6 11.1-26.1 9.8-57.3-1.5-83-5.5-12.5-12.8-23.7-21-34.2q14.3-5.8 26.3-12.8c7.5 11.6 13.5 24 16.8 37.6 5.9 25.1 2.6 50.5-7.4 74z"/>
			<path id="&lt;Path&gt;" class="s0" d="m886.2 350.9c13.2-6.3 30.3-4.6 40.6-16.5 1.2-1.3 0.7 2.3 0.6 2.9-0.3 3.8-1.2 7.6-2.1 11.3-2.2 8.8-4.4 18.1-10.4 25.3-4.7 5.7-11.1 9.7-17.4 13.4q-3.7 2-7.4 4.1-2.2 1.5-4.6 2.8c-5.4 3-11 5.7-16.6 8.4-18.2 8.6-37.8 17.3-50.8 33.2-12.6 15.3-16.5 37.2-4.4 54.2 6.1 8.7 15.4 14.8 25.4 18.4 10 3.6 20.6 4.9 31.3 5.3 1.7 0.1 3.4 0.1 5.1 0.2 13.3 0.2 26.5-0.9 39.6-3.3q9.7-1.9 19.3-4.7c6.3-2 12.5-4.5 18.8-6.7q3.4-1.2 6.8-2.3c1.1-0.3 4.2-1.8 5.1-0.7q-0.9 0.5-1.7 1.1c-11.1 7.2-23 13.1-35.4 17.7-11.8 4.5-24 7.7-36.4 9.7-15.4 2.5-32 2.9-47.3-0.1-14.8-2.8-30.2-9.7-39.7-21.8-11.7-15.1-14.8-35.3-10.1-53.6 8.8-34.5 40.4-49.8 69-65.2 0.9-0.5 1.7-0.9 2.5-1.3q0.4-0.1 0.7-0.3 1.2-4.5 2.6-8.9c1.7-5.6 3.9-11 7.5-15.4 1.7-3.3 3.5-6.5 5.5-9.6 10.8-17.3 23.8-31.5 40.7-43.1q1.1-0.8 2.3-1.5c-5.4-0.1-10.8-0.1-16.2 0.2q-2.9 0.1-5.8 0.4c-4.5 0.5-8.9 1.4-13.2 2.9-3.9 1.3-7.7 3-10.8 5.8-3.2 2.8-5.2 6.6-7.5 10-0.5 0.8-6.6 9.8-4.7 3.9 4-12.4 11.7-25.7 20.4-35.3 5.5-6.1 12.5-10.2 20.2-12.6 20.9-6.2 43.1 0 64.1-5.3 0.4-0.1-1.1 4.1-1.3 4.6-1.3 2.7-2.7 5.4-4.2 8.1-2.8 5-5.7 10.5-9.7 14.6-11.9 11.9-28.5 18.4-42.5 27.4-7 4.5-13.8 9.4-20 14.8-2.8 2.4-5.4 4.9-7.9 7.5z"/>
			<path id="&lt;Compound Path&gt;" fill-rule="evenodd" class="s0" d="m899.7 210.7c1.7 5.4 0.6 11.7-3.2 18.6 1 2.1 1.7 3.6 2 4.6 1.1 3.5 1 5.6-0.2 6-0.7 0.2-2.7-2-5.9-6.4-10.6 11.6-20.7 19-30.1 22q-2.8 0.9-5.9 1.1l-5-1.1c14.2-6 24.9-14.8 31.9-26.1-4.6-4-7.4-7.8-8.5-11.3-2.7-8.5 1.3-18.9 8.9-21.3 3.3-1 6.8 0.2 10.2 3.8 2.6 2.5 4.5 6.1 5.8 10.1zm-9.6 3.3c-1.2-3.8-3.4-5.2-6.5-4.2-0.7 0.2-1.7 1.1-3.1 2.3 0.9 2.1 3.1 5.8 7.1 11 2.4-3.7 3.3-6.5 2.5-9.1z"/>
			<path id="&lt;Path&gt;" class="s0" d="m1052.7 136.8q0 0.9-0.4 2.6-0.5 1.8-1.2 3-0.4 1-2 3.9-1.7 2.8-4.8 6.7-12.9 5.7-25.7 13.2-12.7 7.4-24.8 15.1 0-2.1 2.3-6.9 1.3-2.6 2.6-4.7 1.3-2.2 2.6-3.3 2.5-2.5 9.4-6.9 6.8-4.4 14.9-8.9 8-4.5 15.6-8.4 7.5-3.9 11.5-5.4z"/>
			<path id="&lt;Path&gt;" class="s0" d="m1046.7 245.6c0 9.8-7.9 17.6-17.6 17.6-9.7 0-17.6-7.8-17.6-17.6 0-9.7 7.9-17.6 17.6-17.6 9.7 0 17.6 7.9 17.6 17.6z"/>
			<path id="&lt;Path&gt;" class="s0" d="m1088.3 204.1c0 9.7-7.9 17.6-17.6 17.6-9.8 0-17.7-7.9-17.7-17.6 0-9.8 7.9-17.7 17.7-17.7 9.7 0 17.6 7.9 17.6 17.7z"/>
		</g>
		<g id="&lt;Clip Group&gt;" clip-path="url(#cp1)">
			<path id="&lt;Path&gt;" class="s0" d="m943.2 3.4h86.3v124.8h-86.3z"/>
			<path id="&lt;Compound Path&gt;" fill-rule="evenodd" class="s0" d="m1025.3 3.4c2.1 13.4 4.2 26.2 4.2 38.7 0 13.5-2.5 26.9-10 40.5-13.7 24.6-37.9 36.3-63.4 45.6 0.6-32.9 18.6-65.3 45.1-84.2-25.1 13.7-49.5 37.3-55.8 65.9-1.4-5.7-2.2-11.8-2.2-17.8q0-2.7 0.2-5.4c1.3-4.1 3-8 4.9-11.7 1.9-3.7 4.2-7.1 6.6-10.3 2.5-3.2 5.3-6.1 8.3-8.7 3.1-2.7 6.4-5.3 9.7-7.8 6.7-5 13.8-9.8 20.5-15.2 6.8-5.4 13.2-11.4 18.4-18.3q0 0 0 0 0 0 0 0c4.6-3.5 9.2-7.2 13.5-11.3zm-75.6 59.7q-0.6 1.1-1.2 2.3 0.6-1.2 1.2-2.3zm-1.3 2.6q0 0 0 0.1c-2.8 6.4-4.4 13.5-5 20.6 0.6-7.1 2.2-14.2 5-20.6q0-0.1 0-0.1zm0.1-0.2q0 0.1-0.1 0.2 0.1-0.1 0.1-0.2zm0 0q0 0 0 0 0-0.1 0-0.1 0 0 0 0 0 0.1 0 0.1zm1.2-2.4q0 0 0 0 0 0 0 0zm0-0.2z"/>
		</g>
		<g id="&lt;Clip Group&gt;">
			<path id="&lt;Compound Path&gt;" fill-rule="evenodd" class="s0" d="m1011.8 14.7c-10.7 7.8-22 14.5-33.5 21.6-11.6 7.2-22.2 14.4-28.6 26.6 6.4-12.2 17-19.4 28.6-26.6 11.5-7.1 22.8-13.8 33.5-21.6q0 0 0 0zm-62.1 48.2q0 0 0 0 0 0 0 0zm-6.3 23.5q0 0.2 0 0.3 0-0.1 0-0.3z"/>
		</g>
		<g id="&lt;Clip Group&gt;" clip-path="url(#cp2)">
			<path id="&lt;Path&gt;" class="s0" d="m943.4 14.7h68.4v72h-68.4z"/>
			<path id="&lt;Path&gt;" class="s0" d="m1011.8 14.7c-5.2 6.9-11.6 12.9-18.4 18.3-6.7 5.4-13.8 10.2-20.5 15.2-3.3 2.5-6.6 5.1-9.7 7.8-3 2.6-5.8 5.5-8.3 8.7-2.4 3.2-4.7 6.6-6.6 10.3-1.9 3.7-3.6 7.6-4.9 11.7q0-0.1 0-0.3c0.6-7.1 2.2-14.2 5-20.6q0.6-1.5 1.3-2.9 0 0 0 0 0 0 0 0c6.4-12.2 17-19.4 28.6-26.6 11.5-7.1 22.8-13.8 33.5-21.6z"/>
		</g>
		<g id="&lt;Clip Group&gt;">
			<path id="&lt;Path&gt;" class="s0" d="m21.6 277.8h11.7v7.1h-26.7l4.2-7.1h3.3q0.1-4 0.9-6.2 1.6-4.4 5.3-6 2-0.8 4.2-0.8 4.7 0 8.5 3.7l-4.8 5q-1.5-1.7-3.4-1.7-1 0-1.9 0.9-1.3 1.2-1.3 3z"/>
			<path id="&lt;Path&gt;" class="s0" d="m65.5 251.7q-1.3-1.3-1.3-2.9 0-1.7 1.3-3 1.2-1.2 2.9-1.2 1.6 0 2.9 1.2 1.2 1.3 1.2 3 0 1.6-1.2 2.9-1.3 1.2-2.9 1.2-1.6 0-2.9-1.2z"/>
			<path id="&lt;Path&gt;" class="s0" d="m99.8 291.5q1.3 1.3 1.3 3 0 1.6-1.3 2.9-1.2 1.2-2.8 1.2-1.7 0-2.9-1.2-1.3-1.2-1.3-2.9 0-1.7 1.3-3 1.2-1.2 2.9-1.2 1.6 0 2.8 1.2z"/>
			<path id="&lt;Path&gt;" class="s0" d="m176.8 284.9h-56.5-1.5-37.4-1.5-3.1q-4.5 0-7.9-2.9-3.4 2.9-8 2.9h-3.9-1.5-5.7q-4.4 0-6.7-2.5-2-2.3-2-6.1v-28.4l7.8-2.5v29.7q0 1.5 0.7 2.2 0.6 0.5 1.9 0.5h4 1.5 3.5q4.5 0 4.5-4.5v-12.5l7.7-2.5v15.1q0 2.2 1.3 3.4 1.2 1.1 3.4 1h2.5 1.5 23.2v-3.2q0-3.8-1.1-6.4-1.8-4.1-6.2-4.1-5 0-9 4.1l-4.8-4.9q2.1-2.5 4.9-4 4.2-2.4 9-2.4 6.6 0 10.8 4.3 2.1 2.1 3.3 5.3 1 2.9 1 7.5v3.8h6.3 1.5 7.8v-12.6l7.7-2.5v15.1h8.8v-15l7.8-2.5v17.5h9v-17l7.8-2.5v19.5h7.6 1.5 3.5q4.7 0 4.7-4.5v-25.4l7.7-2.5v28.2q0 5.4-3.3 8.4-3.3 2.9-8.8 2.9h-3.8z"/>
		</g>
		<path id="&lt;Path&gt;" class="s0" d="m209.1 284.9h-7.8v-37l7.8-2.5z"/>
		<g id="&lt;Clip Group&gt;">
			<path id="&lt;Compound Path&gt;" fill-rule="evenodd" class="s0" d="m227.4 281.2q-3.4-3.7-3.4-10.4 0-7.2 4-10.8 3.3-3.1 9.1-3.1h11.7v16.5q0 2.2 1.3 3.4 1.2 1.1 3.4 1h7.5q4.7 0 4.7-4.5v-14.3l7.7-2.5v17.1q0 5.4-3.3 8.4-3.3 2.9-8.8 2.9h-8.4q-4 0-7.9-3.4-1.6 1.5-3 2.2-2.5 1.2-5.6 1.2-5.8 0-9-3.7zm4.5-10.4q0 2.9 0.7 4.6 1 2.4 3.8 2.4 2.8 0 3.8-2.4 0.4-0.8 0.6-2.7 0.2-1.2 0.2-2v-7.1h-3.7q-3.2 0-4.5 2.2-0.9 1.7-0.9 5z"/>
			<path id="&lt;Path&gt;" class="s0" d="m229.7 250.3q-1.3-1.2-1.3-2.9 0-1.7 1.3-3 1.2-1.2 2.9-1.2 1.6 0 2.9 1.2 1.3 1.3 1.3 3 0 1.7-1.3 2.9-1.3 1.2-2.9 1.2-1.6 0-2.9-1.2z"/>
			<path id="&lt;Path&gt;" class="s0" d="m240.5 250.3q-1.2-1.2-1.2-2.9 0-1.7 1.2-3 1.3-1.2 2.9-1.2 1.6 0 2.9 1.2 1.3 1.3 1.3 3 0 1.7-1.3 2.9-1.3 1.2-2.9 1.2-1.6 0-2.9-1.2z"/>
			<path id="&lt;Path&gt;" class="s0" d="m260.4 291.5q1.3 1.3 1.3 3 0 1.6-1.3 2.9-1.2 1.2-2.8 1.2-1.6 0-2.9-1.2-1.3-1.2-1.3-2.9 0-1.7 1.3-3 1.2-1.2 2.9-1.2 1.6 0 2.8 1.2z"/>
			<path id="&lt;Path&gt;" class="s0" d="m268.4 290.3q1.6 0 2.9 1.2 1.3 1.3 1.3 3 0 1.6-1.3 2.9-1.3 1.2-2.9 1.2-1.6 0-2.9-1.2-1.3-1.3-1.3-2.9 0-1.7 1.3-3 1.2-1.2 2.9-1.2z"/>
			<path id="&lt;Path&gt;" class="s0" d="m325.1 277.8l5.5 7.1h-34.1-1.5-5.8q-4.4 0-6.7-2.5-2-2.3-2-6.1v-28.4l7.8-2.5v29.7q0 1.5 0.7 2.2 0.6 0.5 1.9 0.5h4.1 1.5 6.5v-7.3q0-7.4 4-11.4 3.6-3.7 9-3.6 6 0 10.6 4.2l-5.3 5.3q-1.3-1.2-2.2-1.7-1.5-0.8-3.1-0.8-5.2 0-5.2 8v7.3z"/>
			<path id="&lt;Path&gt;" class="s0" d="m374.1 247.9l7.7-2.5v28.2q0 5.4-3.3 8.4-3.3 2.9-8.8 2.9h-3.8-1.5-7.2q-0.5 3.1-1.5 4.8-1.7 3-4.8 4.8-3.5 2-7.7 2-2.6 0-5.5-0.8-1.5-0.5-2.9-1.2l-3.5-7.9q4.8 3.1 10 3.1 3.6 0 5.9-2.3 2.5-2.4 2.5-6.5v-20.1l7.7-2.5v19.5h7 1.5 3.5q4.7 0 4.7-4.5z"/>
			<path id="&lt;Path&gt;" class="s0" d="m413.3 250.3q-1.2-1.2-1.2-2.9 0-1.7 1.2-3 1.2-1.2 2.9-1.2 1.6 0 2.9 1.2 1.2 1.3 1.2 3 0 1.7-1.2 2.9-1.3 1.2-2.9 1.2-1.6 0-2.9-1.2z"/>
			<path id="&lt;Compound Path&gt;" fill-rule="evenodd" class="s0" d="m400.1 281.2q-3.3-3.7-3.3-10.4 0-7.2 4-10.8 3.3-3.1 9.1-3.1h11.7v16.5q0 2.2 1.3 3.4 1.2 1.1 3.4 1h7.5q4.4 0 4.4-4.5v-12.5l7.8-2.5v15.1q0 2.2 1.2 3.4 1.2 1.1 3.4 1h7.5q4.5 0 4.5-4.5v-12.5l7.7-2.5v15.1q0 2.2 1.3 3.4 1.2 1.1 3.4 1h9.5v-29l7.8-2.3v17.9q2.4-2.6 4.9-4.3 4.6-2.8 9.4-2.8 5.4 0 9.4 2.8 4.2 3.1 5.9 8.5 1.1 3.4 1.1 7.6v8.7h-48.6q-4.4 0-7.8-2.9-3.5 2.9-8.1 2.9h-8.4q-4.5 0-7.9-2.9-3.5 2.9-8.1 2.9h-8.4q-4 0-7.9-3.4-1.6 1.5-3 2.2-2.5 1.2-5.7 1.2-5.7 0-9-3.7zm92.3-3.4h22.8q-0.1-3.5-0.6-5.4-1.7-8-8.1-8-5.6 0-9.9 5-2.2 2.5-3.3 5.2-0.5 1.1-0.9 3.2zm-87.7-7q0 2.9 0.7 4.6 1 2.4 3.8 2.4 2.8 0 3.8-2.4 0.4-0.8 0.6-2.7 0.2-1.2 0.2-2v-7.1h-3.7q-3.2 0-4.5 2.2-0.9 1.7-0.9 5z"/>
			<path id="&lt;Path&gt;" class="s0" d="m402.5 250.3q-1.3-1.2-1.3-2.9 0-1.7 1.3-3 1.2-1.2 2.9-1.2 1.6 0 2.9 1.2 1.2 1.3 1.2 3 0 1.7-1.2 2.9-1.3 1.2-2.9 1.2-1.7 0-2.9-1.2z"/>
			<path id="&lt;Path&gt;" class="s0" d="m440.9 290.3q1.6 0 2.9 1.2 1.3 1.3 1.3 3 0 1.6-1.3 2.9-1.3 1.2-2.9 1.2-1.6 0-2.9-1.2-1.2-1.3-1.2-2.9 0-1.7 1.2-3 1.2-1.2 2.9-1.2z"/>
			<path id="&lt;Path&gt;" class="s0" d="m433 291.5q1.2 1.3 1.2 3 0 1.6-1.2 2.9-1.3 1.2-2.9 1.2-1.6 0-2.9-1.2-1.3-1.2-1.3-2.9 0-1.7 1.3-3 1.2-1.2 2.9-1.2 1.6 0 2.9 1.2z"/>
			<path id="&lt;Path&gt;" class="s0" d="m463.1 251.7q-1.3-1.3-1.2-2.9-0.1-1.7 1.2-3 1.2-1.2 2.9-1.2 1.6 0 2.9 1.2 1.3 1.3 1.3 3 0 1.6-1.3 2.9-1.3 1.2-2.9 1.2-1.6 0-2.9-1.2z"/>
			<path id="&lt;Compound Path&gt;" fill-rule="evenodd" class="s0" d="m556.1 284.9q-0.6 3.3-1.6 5-1.6 3-4.5 4.7-3.2 1.9-7.2 1.9-2.6 0-5.8-0.8-1.6-0.5-3-1.2l-3.5-7.9q4.8 3.1 10.6 3.1 3.3 0 5.3-1.8 1.2-1 1.9-3h-5.1q-5.6 0-9.2-3.6-4-4-4-10.5 0-4.6 2.2-8.3 1.6-2.9 4.4-4.5 2.9-1.7 6.6-1.7 7.5 0 10.8 5.5 2.2 4 2.2 10.4v5.6h10.1q4.7 0 4.7-4.5v-25.4l7.7-2.5v28.2q0 5.4-3.3 8.4-3.3 2.9-8.8 2.9zm-7.5-12.5q0-2-0.1-2.7-0.3-3.1-1.9-4.9-1.4-1.6-3.4-1.6-2.3 0-3.8 2.1-1.6 2.2-1.6 5.6 0 3.8 2 5.7 1.4 1.2 3.4 1.2h5.4z"/>
		</g>
		<path id="&lt;Path&gt;" class="s0" d="m593.6 284.9h-7.8v-37l7.8-2.5z"/>
		<g id="&lt;Clip Group&gt;">
			<path id="&lt;Path&gt;" class="s0" d="m625 250.3q-1.2-1.2-1.2-2.9 0-1.7 1.2-3 1.2-1.2 2.9-1.2 1.6 0 2.9 1.2 1.3 1.3 1.3 3 0 1.7-1.3 2.9-1.3 1.2-2.9 1.2-1.6 0-2.9-1.2z"/>
			<path id="&lt;Path&gt;" class="s0" d="m614.2 250.3q-1.3-1.2-1.3-2.9 0-1.7 1.3-3 1.2-1.2 2.9-1.2 1.6 0 2.9 1.2 1.3 1.3 1.2 3 0.1 1.7-1.2 2.9-1.3 1.2-2.9 1.2-1.6 0-2.9-1.2z"/>
			<path id="&lt;Path&gt;" class="s0" d="m650.5 251.7q-1.3-1.3-1.3-2.9 0-1.7 1.3-3 1.2-1.2 2.9-1.2 1.6 0 2.9 1.2 1.2 1.3 1.2 3 0 1.6-1.2 2.9-1.3 1.2-2.9 1.2-1.6 0-2.9-1.2z"/>
			<path id="&lt;Path&gt;" class="s0" d="m681.9 298.6q-1.6 0-2.8-1.2-1.3-1.2-1.3-2.9 0-1.7 1.3-3 1.2-1.2 2.8-1.2 1.7 0 2.9 1.2 1.3 1.3 1.3 3 0 1.6-1.3 2.9-1.2 1.2-2.9 1.2z"/>
			<path id="&lt;Compound Path&gt;" fill-rule="evenodd" class="s0" d="m742.2 282q-3.3 2.9-8.8 2.9h-8.4q-4.4 0-7.8-2.9-3.5 2.9-8.1 2.9h-47.3q-4.5 0-7.9-2.9-3.4 2.9-8 2.9h-8.5q-4 0-7.9-3.4-1.6 1.5-3 2.2-2.5 1.2-5.6 1.2-5.8 0-9.1-3.7-3.3-3.7-3.3-10.4 0-7.2 4-10.8 3.3-3.1 9.1-3.1h11.7v16.5q0 2.2 1.3 3.4 1.2 1.1 3.4 1h7.5q4.4 0 4.4-4.5v-12.5l7.8-2.5v15.1q0 2.2 1.3 3.4 1.2 1.1 3.3 1h27.3v-3.2q0-3.8-1.2-6.4-1.7-4.1-6.2-4.1-5 0-8.9 4.1l-4.8-4.9q2.1-2.5 4.8-4 4.2-2.4 9.1-2.4 6.6 0 10.8 4.3 2.1 2.1 3.3 5.3 1 2.9 1 7.5v3.8h11.2q4.5 0 4.5-4.5v-25.4l7.8-2.5v28q0 2.2 1.2 3.4 1.2 1.1 3.4 1h7.5q4.7 0 4.7-4.5v-25.4l7.8-2.5v28.2q0 5.4-3.4 8.4zm-116.7-18.4h-3.7q-3.2 0-4.5 2.2-0.9 1.7-0.9 5 0 2.9 0.7 4.6 1 2.4 3.8 2.4 2.8 0 3.8-2.4 0.4-0.8 0.6-2.7 0.2-1.2 0.2-2z"/>
		</g>
		<path id="&lt;Path&gt;" class="s0" d="m760.4 245.4v39.5h-7.8v-37z"/>
		<g id="&lt;Clip Group&gt;">
			<path id="&lt;Compound Path&gt;" fill-rule="evenodd" class="s0" d="m244.7 338.6q0.8 2.9 0.8 7.4v11.1h-39.4q-6.1 0-9.4-3.8-3.6 3.8-9.2 3.8-5.6 0-8.9-3.4-3.8-3.7-3.8-10.2 0-3.2 1.1-6.1h-4.5q-3.1 0-4.5 1.6-1.5 1.7-1.5 5.5v21.9l-7.9 2.3v-25.7q0-6.7 3.8-10 3.4-2.9 9.9-3h16.3q5.8 0 9.1 3.5 2.2 2.2 3 5.5 0.3 1.3 0.5 3.4 0.3 3.2 0.8 4.6 0.8 2.1 2.3 2.8 0.8 0.3 2.2 0.3h9.7q-0.7-2-0.7-4.1 0-4.5 2.9-7.4 2.7-2.7 6.6-2.7 4 0 6.6 2.6 2.8 2.8 2.8 7.4 0 2.2-0.8 4.2h5.1v-5.6q0-3.7-1.8-6.7-2.7-4.8-9-4.8h-16.4l8-6.5h9.8q3.2 0 6.1 0.8 2.8 0.9 4.9 2.4 4.1 3 5.5 8.9zm-52.2 5.1q0-2.8-0.9-4.4-1.3-2.3-4.1-2.3-2.8 0-4.1 2.3-1 1.6-1 4.4 0 6.5 5 6.5 2.5 0 3.7-1.4 1.4-1.6 1.4-5.1zm34.1 2.6q0-2.2-0.9-3.3-0.8-1-1.8-1-1.2 0-1.9 1-0.9 1.2-0.9 3.3 0 2 0.7 3.2 0.8 1.3 2.1 1.3 1.6 0 2.3-1.8 0.4-1 0.4-2.7z"/>
			<path id="&lt;Path&gt;" class="s0" d="m319.4 331.2l7.8-2.5-0.1 17.5q0 4.7-2.9 7.7-3.3 3.2-8.9 3.2h-34.5-1.4-7.2q-0.6 3.1-1.5 4.8-1.8 3-4.8 4.8-3.6 2.1-7.8 2-2.5 0-5.5-0.8-1.5-0.5-2.9-1.1l-3.4-7.9q4.7 3 9.9 3 3.7 0 5.9-2.2 2.5-2.5 2.5-6.5v-20.1l7.8-2.6v19.6h7 1.4 5.3v-14.5l7.7-2.5v17h8.8v-16.8l7.8-2.5v19.3h4.6q4.4 0 4.4-4.4z"/>
		</g>
		<path id="&lt;Path&gt;" class="s0" d="m334.2 320.2l7.8-2.5v39.4h-7.8z"/>
		<g id="&lt;Clip Group&gt;">
			<path id="&lt;Path&gt;" class="s0" d="m338.2 312h4.9v3h-11.2l1.7-3h1.5q0-1.7 0.3-2.6 1.1-2.9 4.1-2.9 2 0 3.5 1.5l-2 2.2q-0.7-0.7-1.6-0.7-0.4 0.1-0.7 0.4-0.5 0.5-0.5 1.2z"/>
			<path id="&lt;Compound Path&gt;" fill-rule="evenodd" class="s0" d="m375.3 344.8v7.7q0 4.3-0.7 6.8-0.6 2.9-2.7 5.3-2.2 2.3-5.4 3.4-2.3 0.8-4.7 0.7-2.6 0-5.8-0.8-1.6-0.5-3-1.1l-3.5-7.9q4.9 3 10.5 3 3.5 0 5.4-1.7 1.1-0.9 1.6-2 0.2-0.6 0.6-1.7-2.5 1-4.9 1-5.9 0-9.5-3.6-2-2-3-4.8-1.1-2.8-1.1-6.1 0-4.7 2.1-8.3 1.7-2.9 4.4-4.5 2.9-1.6 6.6-1.7 13 0 13.1 16.3zm-7.7-1.7q0-3.6-1.8-5.8-1.5-1.9-3.6-1.9-2.3 0-3.8 2.1-1.6 2.2-1.6 5.6 0 4 2.1 6.2 1.4 1.3 3.2 1.3 2.4 0 3.9-2.1 1.5-2.1 1.6-5.4z"/>
			<path id="&lt;Path&gt;" class="s0" d="m496.2 316.9q1.6 0 2.9 1.2 1.2 1.2 1.2 2.9 0 1.7-1.2 2.9-1.3 1.3-2.9 1.3-1.6 0-2.9-1.2-1.3-1.3-1.3-3 0-1.7 1.3-2.9 1.2-1.2 2.9-1.2z"/>
			<path id="&lt;Compound Path&gt;" fill-rule="evenodd" class="s0" d="m537.8 350.1l5.6 7h-38.8q-4.5 0-7.9-2.9-3.4 2.9-8 2.9h-50q-6 0-9.4-3.8-3.6 3.8-9.2 3.8-5.5 0-8.9-3.4-3.8-3.7-3.8-10.2 0-3.2 1.2-6.1h-4.6q-3 0-4.4 1.6-1.6 1.7-1.6 5.5v21.9l-7.8 2.3v-25.7q0-6.7 3.7-10 3.4-2.9 9.9-3h16.3q5.8 0 9.2 3.5 2.1 2.2 2.9 5.5 0.4 1.3 0.6 3.4 0.2 3.2 0.7 4.6 0.8 2.1 2.3 2.8 0.8 0.3 2.3 0.3h9.6q-0.6-2.1-0.6-4.8 0-4.1 1.3-7.9 1.5-4 4.3-6.5 4.1-3.5 10.4-3.5 8.6 0 13 7.1 2.9 4.7 2.9 11.5v4.1h9.3q4.4 0 4.4-4.6v-12.4l7.8-2.6v15.1q0 2.3 1.3 3.5 1.2 1 3.3 1h10.6v-7.3q0-7.5 4.1-11.5 3.6-3.6 9-3.6 5.9 0 10.5 4.2l-5.3 5.3q-1.3-1.1-2.2-1.7-1.4-0.8-3.1-0.8-5.2 0-5.2 8.1v7.3zm-78.5-3.8q0-2.2-0.9-3.3-0.8-1-1.8-1-1.2 0-1.9 1-0.9 1.2-0.9 3.3 0 2.7 1.2 3.8 0.7 0.6 1.6 0.7 1.4 0 2.1-1.3 0.6-1.2 0.6-3.2zm-34.1-2.6q0-2.8-0.9-4.4-1.4-2.3-4.1-2.3-2.8 0-4.1 2.3-1 1.6-1 4.4 0 6.5 5 6.5 2.5 0 3.7-1.4 1.4-1.6 1.4-5.1zm45.9 0.8q0-4-1.9-7.2-1.3-2.1-3.2-3.2-1.5-0.8-3.4-0.8-2.3 0-4.4 1.4-0.9 0.6-1.5 1.4 2.6 0 3.9 0.5 3.1 1.2 4.4 4.3 1 2.1 1 5 0 2.2-0.8 4.2h5.9z"/>
			<path id="&lt;Path&gt;" class="s0" d="m575.9 349.2q1.6 0 2.9 1.2 1.2 1.3 1.2 2.9 0 1.7-1.2 2.9-1.3 1.3-2.9 1.3-1.7 0-2.9-1.2-1.3-1.3-1.3-3 0-1.6 1.3-2.9 1.2-1.2 2.9-1.2z"/>
			<path id="&lt;Path&gt;" class="s0" d="m588.3 345.7h-13.4q-4.1 0-6.4 2.3-1.1 1.1-1.7 2.6-0.5 1.5-0.5 2.9 0 3.7 3.4 6.2 2.4 1.8 5.5 1.8 4.5 0 8.9-3v7.2q-4.7 2.9-10 2.9-4.5 0-8.3-2.2-3.7-2.1-5.6-5.4-1.9-3.3-1.9-7.3 0-4.3 2.1-7.8 2.1-3.4 5.5-5.3 3.5-1.9 8.2-1.9h4.9q-0.6-1.4-1.7-2.5-1.9-1.7-4.5-1.7-2.6 0-5.7 1.6-1.5 0.9-3 2.2l-4.8-4.8q1.4-1.5 2.5-2.3 2.5-1.8 5.4-2.8 3-1.1 6-1.1 3.5 0 6.5 1.4 5.2 2.4 7.5 8.6 0.8 2.3 1 5.2 0.1 1.4 0.1 3.2z"/>
			<path id="&lt;Path&gt;" class="s0" d="m639.4 323.8q-1.6 0-2.9-1.2-1.2-1.3-1.2-3 0-1.7 1.2-2.9 1.2-1.2 2.9-1.2 1.6 0 2.9 1.2 1.3 1.2 1.3 2.9 0 1.7-1.3 2.9-1.3 1.3-2.9 1.3z"/>
			<path id="&lt;Compound Path&gt;" fill-rule="evenodd" class="s0" d="m704.6 320.2l7.7-2.5v28.2q0 5.3-3.3 8.3-3.3 2.9-8.8 2.9h-5.7q-4.3 0-7.4-2.5-1.4 2.9-3.5 4.5-3.2 2.5-8 2.5-4.9 0-8.1-2.6-1.7-1.4-3.1-3.9-2.6 2-6.6 2h-15.1q-2 0-3.3-0.3-1.7 0.3-3.4 0.3h-21q-0.5 3.1-1.5 4.8-1.7 3-4.8 4.8-3.5 2.1-7.7 2-2.6 0-5.5-0.8-1.5-0.5-2.9-1.1l-3.5-7.9q4.8 3 10 3 3.6 0 5.9-2.2 2.5-2.5 2.5-6.5v-20.1l7.8-2.6v19.6h14q-2.2-3.5-2.2-7.6 0-6.7 3.8-10.4 3.2-3 8.5-3 5.9 0 9.2 4 3.1 3.6 3.1 9.3 0 2.8-0.9 5.1-0.5 1.1-1.4 2.6h8q2.8 0 4.1-1.3 1.1-1.1 1.5-3 0.5-3.2 1.4-4.9 1.7-3.3 4.7-5 2.8-1.6 6.5-1.6 5 0 8.3 2.8 2.1 1.8 3.2 4.6 0.6 1.2 1.1 3.9 0.4 2.3 1.8 3.3 1.5 1.2 4.1 1.2h5.8q4.7 0 4.7-4.6zm-60.5 21.9q0-2.5-1.2-4.1-1.4-1.6-3.5-1.7-2.3 0-3.6 1.8-1.1 1.7-1.1 4.1 0 3.2 1.8 5.7 0.7 0.9 1.5 1.4 1.2 0.9 1.4 0.8 1.9-0.9 3-2.6 1.7-2.4 1.7-5.4zm36.5 5.9q0-2.8-1.1-4.5-1.3-2.3-3.9-2.3-2.6 0-3.9 2.3-1 1.8-1 4.5 0 3.9 1.8 5.5 1.2 1.2 3.1 1.2 5 0 5-6.7z"/>
		</g>
		<path id="&lt;Path&gt;" class="s0" d="m719.4 320.2l7.8-2.5v39.4h-7.8z"/>
		<g id="&lt;Clip Group&gt;">
			<path id="&lt;Compound Path&gt;" fill-rule="evenodd" class="s0" d="m760.4 344.8v7.7q0 4.3-0.6 6.8-0.7 2.9-2.8 5.3-2.1 2.3-5.3 3.4-2.3 0.8-4.7 0.7-2.7 0-5.8-0.8-1.6-0.5-3-1.1l-3.5-7.9q4.8 3 10.5 3 3.4 0 5.4-1.7 1-0.9 1.6-2 0.2-0.6 0.5-1.7-2.4 1-4.9 1-5.9 0-9.4-3.6-2-2-3.1-4.8-1.1-2.8-1.1-6.1 0-4.7 2.2-8.3 1.6-2.9 4.4-4.5 2.9-1.6 6.6-1.7 13 0 13 16.3zm-7.7-1.7q0-3.6-1.7-5.8-1.5-1.9-3.7-1.9-2.2 0-3.7 2.1-1.6 2.2-1.6 5.6 0 4 2.1 6.2 1.4 1.3 3.2 1.3 2.4 0 3.9-2.1 1.5-2.1 1.5-5.4z"/>
		</g>
	</g>
</svg>