<svg id="Layer_1" data-name="Layer 1" xmlns="http://www.w3.org/2000/svg" viewBox="0 0 220 46"><defs><style>.cls-1{fill:#005175;}.cls-2{fill:#005e7f;}.cls-3{fill:#fff;}</style></defs><title>logo-2</title><path class="cls-1" d="M192.07,10.37A3.17,3.17,0,1,0,188.9,7.2a3.17,3.17,0,0,0,3.17,3.17"/><path class="cls-1" d="M184.18,10.37A3.17,3.17,0,1,0,181,7.2a3.17,3.17,0,0,0,3.17,3.17"/><path class="cls-1" d="M216.67,19.77l-4.14.05,0,10a4.17,4.17,0,0,1,0,.61,5.32,5.32,0,0,1-2.89,4.34,5.67,5.67,0,0,1-2.83.75h-6.08v1.62a4.62,4.62,0,0,0,4.62,4.62H208a10.88,10.88,0,0,0,10.86-10.86V21.94a2.15,2.15,0,0,0-2.2-2.17"/><path class="cls-2" d="M214.73,4h-9a4.27,4.27,0,0,0-4.27,4.27v2.07h10.48a.72.72,0,0,1,.72.73v.09a.73.73,0,0,1-.72.73H200.61a3.82,3.82,0,0,0-3.82,3.82v12h-1.55V15.07a3.15,3.15,0,0,0-3.15-3.15h-7.26A3.82,3.82,0,0,0,181,15.74V30.28A3.72,3.72,0,0,0,184.72,34h4.2v2.72a5,5,0,0,0,5,5h2.32a3.68,3.68,0,0,0,3.68-3.68V35.49h-4.71V34h12a3.94,3.94,0,0,0,1.69-.53,4.33,4.33,0,0,0,2.13-3.22,1.94,1.94,0,0,0,0-.24V22.2a2.39,2.39,0,0,0-2.4-2.39h-5.55V18.26h12.16A3.72,3.72,0,0,0,219,14.54V8.3A4.27,4.27,0,0,0,214.73,4M188.9,27a.73.73,0,0,1-.72.73h-.1a.73.73,0,0,1-.73-.73V19a.73.73,0,0,1,.73-.73h.1a.72.72,0,0,1,.72.73Zm15-.82H204a.73.73,0,0,1,.73.73V27a.73.73,0,0,1-.73.73h-.12a.73.73,0,0,1-.73-.73v-.09a.73.73,0,0,1,.73-.73"/><path class="cls-3" d="M3.77,10.29v2.59A2.4,2.4,0,0,0,4.05,14a2,2,0,0,0,.79.79A2.43,2.43,0,0,0,6,15.11h.08a2.36,2.36,0,0,0,1.17-.29A2,2,0,0,0,8,14a2.25,2.25,0,0,0,.28-1.15V8.07h1.8v4.81a4,4,0,0,1-.53,2,3.78,3.78,0,0,1-1.45,1.44,4.07,4.07,0,0,1-2.06.52H6a4.09,4.09,0,0,1-2-.52,3.83,3.83,0,0,1-1.44-1.44,4.09,4.09,0,0,1-.52-2V10.29Zm5,1.35a2.33,2.33,0,0,0,0-.83L8.32,8.07h1.75v2.74a.75.75,0,0,0,.82.83h.34a.82.82,0,0,0,.61-.22.85.85,0,0,0,.22-.61V8.07h1.75v2.74a.76.76,0,0,0,.84.83H15a.78.78,0,0,0,.6-.22.89.89,0,0,0,.21-.61v-4h1.74v4a.81.81,0,0,0,.23.61.88.88,0,0,0,.63.22v1.8a1.63,1.63,0,0,1-.79-.16,1.8,1.8,0,0,1-.6-.49,2.16,2.16,0,0,1-.7.49,2.56,2.56,0,0,1-1,.16h-.74a1.7,1.7,0,0,1-1.38-.68,1.77,1.77,0,0,1-.64.52,2.58,2.58,0,0,1-1.45.1,2.59,2.59,0,0,1-.51-.18,1.39,1.39,0,0,1-.61-.43,1.63,1.63,0,0,1-.31-.71c-.21.29-.54.75-1,1.38h0Zm10.45,1.8h-.77v-1.8h.77Zm-.33-1.8h1.25a.51.51,0,0,0,.36-.14.53.53,0,0,0,.16-.43v-4h1.79v4.65a1.71,1.71,0,0,1-.23.87,1.61,1.61,0,0,1-.62.62,1.71,1.71,0,0,1-.87.22H18.87ZM21,17.15a1,1,0,0,1-.75-.31,1,1,0,0,1-.31-.75A1.08,1.08,0,0,1,21,15a1,1,0,0,1,.74.32,1,1,0,0,1,.31.73,1.06,1.06,0,0,1-.31.75,1,1,0,0,1-.74.31m12.27-5.51v1.8h-.77a1.92,1.92,0,0,1-.88-.2,2.34,2.34,0,0,1-.74-.56,2.22,2.22,0,0,1-.81.56,2.77,2.77,0,0,1-1.12.2H24.08v-1.8h1.75V5h1.79v6.65H29a.91.91,0,0,0,.78-.28,1.29,1.29,0,0,0,.22-.8L30,4.1h1.8v6.46a1.36,1.36,0,0,0,.22.8,1,1,0,0,0,.79.28Zm8.54,0v1.8h-.46a2.37,2.37,0,0,1-1-.22,2.23,2.23,0,0,1-.78-.61,3,3,0,0,1-.86.58,2.65,2.65,0,0,1-1,.21,3.61,3.61,0,0,1-2.2-.73,2.39,2.39,0,0,1-.79.57,2.55,2.55,0,0,1-1,.2H33.2l-.77-.28V11.94l.77-.3h.48a.69.69,0,0,0,.74-.72V9.58A3.11,3.11,0,0,1,34.81,8a2.91,2.91,0,0,1,1.1-1.1,3,3,0,0,1,1.56-.4h.13a3,3,0,0,1,1.55.4A3,3,0,0,1,40.25,8a3.12,3.12,0,0,1,.4,1.56v1.34a.72.72,0,0,0,.2.52.68.68,0,0,0,.52.2Zm-4.16,0a1.11,1.11,0,0,0,.59-.16,1.35,1.35,0,0,0,.43-.46,1.24,1.24,0,0,0,.16-.64V9.58a1.27,1.27,0,0,0-.34-.92,1.23,1.23,0,0,0-.91-.35h-.13a1.4,1.4,0,0,0-.66.16,1,1,0,0,0-.44.44,1.33,1.33,0,0,0-.17.67V11a1.8,1.8,0,0,0,.64.48,2.08,2.08,0,0,0,.83.16m3.24,1.56V11.94l.78-.3v1.8Zm.78-1.52h.66a.51.51,0,0,0,.36-.14.53.53,0,0,0,.16-.43v-7h1.8v7.63a1.63,1.63,0,0,1-.24.87,1.61,1.61,0,0,1-.62.62,1.69,1.69,0,0,1-.86.22H41.69ZM46.46,4.1h1.8v9.34h-1.8Zm7.71,6.44v2.6a2.27,2.27,0,0,0,.28,1.14,2,2,0,0,0,.79.79,2.29,2.29,0,0,0,1.16.28h.09a2.34,2.34,0,0,0,1.16-.28,2,2,0,0,0,.79-.79,2.27,2.27,0,0,0,.28-1.14V7h1.79v6.13a4,4,0,0,1-.53,2,3.78,3.78,0,0,1-1.44,1.45,4.16,4.16,0,0,1-2,.52H56.4a4.17,4.17,0,0,1-2.06-.52,3.65,3.65,0,0,1-1.44-1.45,4,4,0,0,1-.52-2v-2.6ZM55.91,7.7a1.05,1.05,0,0,1-.74-.31,1,1,0,0,1-.32-.75,1,1,0,0,1,.32-.73,1.06,1.06,0,0,1,1.8.73,1,1,0,0,1-.31.75,1.06,1.06,0,0,1-.75.31m5.83,5.74H60.45v-1.8h1.29Zm4.41-6.92a3,3,0,0,1,1.55.4A3,3,0,0,1,68.8,8a3,3,0,0,1,.4,1.56v.76a3,3,0,0,1-.4,1.53A3.08,3.08,0,0,1,67.71,13a2.88,2.88,0,0,1-1.49.41,3.61,3.61,0,0,1-2.2-.73,2.46,2.46,0,0,1-.78.57,2.55,2.55,0,0,1-1,.2h-.57l-.78-.28V11.94l.78-.3h.57a.7.7,0,0,0,.53-.2.72.72,0,0,0,.2-.52V9.58A3,3,0,0,1,63.37,8a2.81,2.81,0,0,1,1.09-1.1A3,3,0,0,1,66,6.52ZM67.4,9.58a1.19,1.19,0,0,0-1.25-1.27H66a1.4,1.4,0,0,0-.66.16,1,1,0,0,0-.44.44,1.33,1.33,0,0,0-.17.67V11a1.8,1.8,0,0,0,.64.48,2.08,2.08,0,0,0,.83.16,1.11,1.11,0,0,0,.59-.16,1.35,1.35,0,0,0,.43-.46,1.24,1.24,0,0,0,.16-.64Zm7.53.71v2.59A2.4,2.4,0,0,0,75.21,14a2,2,0,0,0,.79.79,2.43,2.43,0,0,0,1.16.28h.09a2.35,2.35,0,0,0,1.16-.29A2,2,0,0,0,79.2,14a2.25,2.25,0,0,0,.28-1.15V4.1h1.79v8.78a4.09,4.09,0,0,1-.52,2,3.78,3.78,0,0,1-1.45,1.44,4,4,0,0,1-2,.52h-.09a4.07,4.07,0,0,1-2.06-.52,3.83,3.83,0,0,1-1.44-1.44,4.18,4.18,0,0,1-.51-2V10.29Zm7.64,3.15H81.19v-1.8h1.38Zm8.56-1.8v1.8h-.46a2.37,2.37,0,0,1-1-.22,2.11,2.11,0,0,1-.77-.61,3,3,0,0,1-.87.58,2.61,2.61,0,0,1-1,.21,3.61,3.61,0,0,1-2.2-.73,2.39,2.39,0,0,1-.79.57,2.55,2.55,0,0,1-1,.2H82.5l-.77-.28V11.94l.77-.3H83a.69.69,0,0,0,.74-.72V9.58A3,3,0,0,1,84.12,8a2.81,2.81,0,0,1,1.09-1.1,3,3,0,0,1,1.56-.4h.13a3,3,0,0,1,1.55.4A3,3,0,0,1,89.55,8,3,3,0,0,1,90,9.58v1.34a.72.72,0,0,0,.2.52.69.69,0,0,0,.52.2ZM87,11.6a1.11,1.11,0,0,0,.59-.16A1.35,1.35,0,0,0,88,11a1.24,1.24,0,0,0,.16-.64V9.58A1.19,1.19,0,0,0,86.9,8.31h-.13a1.4,1.4,0,0,0-.66.16,1,1,0,0,0-.44.44,1.33,1.33,0,0,0-.16.67V11a1.76,1.76,0,0,0,.63.48,2.08,2.08,0,0,0,.83.16m3.25,1.56V11.94l.78-.3v1.8Zm9.67-1.52v1.8H97.14a2.58,2.58,0,0,1-1-.18,2.07,2.07,0,0,1-.78-.59,2.52,2.52,0,0,1-1.84.77H91v-1.8h2.09a7,7,0,0,0,.7,0,3.83,3.83,0,0,0,.7-.13L92.25,8.56V7.25A15,15,0,0,1,94,6.72a7.32,7.32,0,0,1,1.52-.15,5.39,5.39,0,0,1,1.73.25,2.69,2.69,0,0,1,1.17.7,1.58,1.58,0,0,1,.42,1.1,2.22,2.22,0,0,1-.18.82,3.19,3.19,0,0,1-.47.9,8.36,8.36,0,0,1-.75.83l-.31.31a2.94,2.94,0,0,0,.59.12,4.21,4.21,0,0,0,.62,0Zm-4.32-1,.2-.21c.18-.21.34-.42.49-.62a2.89,2.89,0,0,0,.36-.67v0A1,1,0,0,0,96.7,9a.55.55,0,0,0,0-.18.46.46,0,0,0-.31-.41,2.28,2.28,0,0,0-1-.15,5.64,5.64,0,0,0-.79.07,5.77,5.77,0,0,0-.77.2v.07Zm4.22,1v1.8L99,13.16V11.94Zm1.36,0a.94.94,0,0,0,.78-.28,1.36,1.36,0,0,0,.21-.8V7.09h1.79V9.85a5.25,5.25,0,0,1-.59,2.48,2.28,2.28,0,0,1-2.22,1.11H99.79v-1.8Zm.55-5.51a1,1,0,0,1-.75-.32,1,1,0,0,1,0-1.48A1,1,0,0,1,101.7,4a1,1,0,0,1,.74.31,1,1,0,0,1,0,1.48,1,1,0,0,1-.74.32m3,7.31a2.09,2.09,0,0,1-1.27-.43,3,3,0,0,1-.92-1.07,2.81,2.81,0,0,1-.36-1.25V7.09h1.8v3.47a1.29,1.29,0,0,0,.22.8.94.94,0,0,0,.78.28h1.86v1.8Zm-.13-7.31a1,1,0,0,1-.75-.32,1.05,1.05,0,0,1,1.5-1.48,1,1,0,0,1,0,1.48,1,1,0,0,1-.75.32m1.33,7V11.94l.78-.3v1.8Zm.78-1.52H107a.94.94,0,0,0,.69-.22.81.81,0,0,0,.23-.61V8.07h1.76v2.74a.81.81,0,0,0,.22.62.82.82,0,0,0,.59.21h.42a.81.81,0,0,0,.6-.22.85.85,0,0,0,.22-.61V8.07h1.75v2.74a.76.76,0,0,0,.84.83h.43a.82.82,0,0,0,.61-.22.89.89,0,0,0,.21-.61V6.73h1.73v4.08a.81.81,0,0,0,.23.61.85.85,0,0,0,.63.22v1.8a1.6,1.6,0,0,1-.79-.16,1.64,1.64,0,0,1-.6-.51,1.79,1.79,0,0,1-.7.51,2.56,2.56,0,0,1-1,.16h-.81a1.7,1.7,0,0,1-1.38-.68,1.61,1.61,0,0,1-.66.52,2.67,2.67,0,0,1-1,.16h-.75a1.75,1.75,0,0,1-.83-.19,1.51,1.51,0,0,1-.58-.5,1.59,1.59,0,0,1-.71.52,3.45,3.45,0,0,1-1.24.17h-.43Zm20.79,0v1.8H127a2.31,2.31,0,0,1-1-.22,2.06,2.06,0,0,1-.78-.61,2.88,2.88,0,0,1-.87.58,2.61,2.61,0,0,1-1,.21,3.6,3.6,0,0,1-1.18-.19,3.55,3.55,0,0,1-1-.54,2.39,2.39,0,0,1-.79.57,2.55,2.55,0,0,1-1,.2h-.48l-.77-.28V11.94l.77-.3h.48a.69.69,0,0,0,.54-.2.72.72,0,0,0,.2-.52V9.58a3,3,0,0,1,.4-1.56,2.88,2.88,0,0,1,1.09-1.1,3.07,3.07,0,0,1,1.56-.4h.13a3,3,0,0,1,1.55.4,2.91,2.91,0,0,1,1.1,1.1,3,3,0,0,1,.4,1.56v1.34a.72.72,0,0,0,.2.52.7.7,0,0,0,.53.2Zm-8.58,1.8h-.77v-1.8h.77Zm4.42-1.84a1.09,1.09,0,0,0,.59-.16,1.35,1.35,0,0,0,.43-.46,1.24,1.24,0,0,0,.16-.64V9.58a1.19,1.19,0,0,0-1.25-1.27h-.13a1.4,1.4,0,0,0-.66.16,1.1,1.1,0,0,0-.44.44,1.33,1.33,0,0,0-.16.67V11a1.72,1.72,0,0,0,.64.48,2,2,0,0,0,.82.16m3.24,1.56V11.94l.78-.3v1.8Zm.78-1.52H128a.51.51,0,0,0,.36-.14.53.53,0,0,0,.16-.43v-7h1.8v7.63a1.69,1.69,0,0,1-.86,1.49,1.67,1.67,0,0,1-.86.22h-1.26Zm4.77-7.54h1.8v9.34h-1.8ZM137.77,15a3.6,3.6,0,0,1,.37-1.64,3.65,3.65,0,0,1,1-1.22,6.38,6.38,0,0,1,1.5-.88l-2.3-2.93V7.27a11.38,11.38,0,0,1,1.82-.53,9.3,9.3,0,0,1,1.73-.17,5.43,5.43,0,0,1,1.79.27,2.48,2.48,0,0,1,1.16.78,1.72,1.72,0,0,1,.34,1.2,3,3,0,0,1-.48,1.44,4.74,4.74,0,0,1-1.2,1.22,1.21,1.21,0,0,0,.38.12,1.91,1.91,0,0,0,.43,0h1.8v1.8h-2.22a2.9,2.9,0,0,1-.83-.1,2.13,2.13,0,0,1-.57-.25,5.05,5.05,0,0,1-.51-.42l0-.05a.1.1,0,0,0-.05,0l-.21.09a8.28,8.28,0,0,0-1,.43,2.15,2.15,0,0,0-.76.69,2.08,2.08,0,0,0-.34,1.25,1.47,1.47,0,0,0,.71,1.27,3.19,3.19,0,0,0,1.81.48,5.18,5.18,0,0,0,2.19-.47V18a5.61,5.61,0,0,1-3,.57,4.09,4.09,0,0,1-2.5-1.1,3.17,3.17,0,0,1-1-2.4m2.49-6.48,1.68,2.14a3.57,3.57,0,0,0,.87-.94,1.82,1.82,0,0,0,.28-1c0-.25-.17-.44-.52-.57a2.44,2.44,0,0,0-1.19-.13,2.32,2.32,0,0,0-1.12.41Zm14.37,3.08v1.8h-.46a2.37,2.37,0,0,1-1-.22,2.11,2.11,0,0,1-.77-.61,2.88,2.88,0,0,1-.87.58,2.61,2.61,0,0,1-1,.21,3.61,3.61,0,0,1-2.2-.73,2.39,2.39,0,0,1-.79.57,2.55,2.55,0,0,1-1,.2H146l-.77-.28V11.94l.77-.3h.48a.71.71,0,0,0,.54-.2.72.72,0,0,0,.2-.52V9.58a3,3,0,0,1,.4-1.56,2.81,2.81,0,0,1,1.09-1.1,3,3,0,0,1,1.56-.4h.13a3,3,0,0,1,1.55.4,3,3,0,0,1,1.1,1.1,3,3,0,0,1,.4,1.56v1.34a.72.72,0,0,0,.2.52.69.69,0,0,0,.52.2Zm-4.16,0a1.11,1.11,0,0,0,.59-.16,1.35,1.35,0,0,0,.43-.46,1.24,1.24,0,0,0,.16-.64V9.58a1.19,1.19,0,0,0-1.25-1.27h-.13a1.4,1.4,0,0,0-.66.16,1,1,0,0,0-.44.44,1.33,1.33,0,0,0-.16.67V11a1.76,1.76,0,0,0,.63.48,2.08,2.08,0,0,0,.83.16m4,0v1.8l-.78-.28V11.94ZM161,10a6.17,6.17,0,0,0,.58,1.06,1.48,1.48,0,0,0,.41.44.62.62,0,0,0,.32.11v1.8h-7.85v-1.8h5.34a1.6,1.6,0,0,1-.24-.36c-.09-.15-.19-.34-.32-.58,0-.07-.07-.14-.11-.2s-.07-.14-.1-.22A5.82,5.82,0,0,0,158,8.89a2.34,2.34,0,0,0-1.23-.6,3.44,3.44,0,0,0-1.7.27V6.91a4.3,4.3,0,0,1,2.35-.22,4.07,4.07,0,0,1,2,1.08A7.84,7.84,0,0,1,161,10m-2.52,6.53a1.09,1.09,0,0,1-1.07-1.06,1,1,0,0,1,.32-.73,1,1,0,0,1,1.49,0,1,1,0,0,1,.32.73,1.09,1.09,0,0,1-1.06,1.06m5-3.12h-1.36v-1.8h1.36Zm-.82-.28V11.94l.78-.3v1.8Zm.78-1.52h.66a.5.5,0,0,0,.36-.14.53.53,0,0,0,.16-.43v-7h1.8v7.63a1.62,1.62,0,0,1-.23.87,1.7,1.7,0,0,1-.63.62,1.66,1.66,0,0,1-.85.22h-1.27Z"/><path class="cls-3" d="M1,31.82a2.85,2.85,0,0,1,.4-1.49,2.94,2.94,0,0,1,1.08-1.08A2.87,2.87,0,0,1,4,28.85h.21a2.85,2.85,0,0,1,1.49.4,2.8,2.8,0,0,1,1.08,1.08,2.85,2.85,0,0,1,.4,1.49v1a2.76,2.76,0,0,1-.39,1.45,3,3,0,0,1-1,1.06,2.85,2.85,0,0,1-1.45.4H4a3,3,0,0,1-1.51-.4A2.89,2.89,0,0,1,1.39,34.3,2.94,2.94,0,0,1,1,32.8Zm2-3.73a1.06,1.06,0,0,1-.75-.31A1,1,0,0,1,1.89,27a1,1,0,0,1,.31-.73,1.05,1.05,0,0,1,1.49,0A1,1,0,0,1,4,27a1,1,0,0,1-1,1.07M2.8,32.8a1.19,1.19,0,0,0,.15.58,1.24,1.24,0,0,0,.43.42A1.1,1.1,0,0,0,4,34h.37a1,1,0,0,0,.51-.15,1,1,0,0,0,.5-.87V31.82a1.23,1.23,0,0,0-.15-.61,1,1,0,0,0-.42-.41,1.21,1.21,0,0,0-.6-.15H4a1.23,1.23,0,0,0-.61.15,1,1,0,0,0-.41.41,1.23,1.23,0,0,0-.15.61Zm3-4.71a1.06,1.06,0,0,1-.75-.31A1,1,0,0,1,4.75,27a1,1,0,0,1,.31-.73,1.06,1.06,0,0,1,1.5,0,1,1,0,0,1,.31.73,1.06,1.06,0,0,1-1.06,1.07m2.12,9h.66a1.3,1.3,0,0,0,.63-.15,1.06,1.06,0,0,0,.42-.42,1.3,1.3,0,0,0,.15-.63V29.29h1.8v6.58a3,3,0,0,1-.4,1.53,2.89,2.89,0,0,1-1.07,1.07,3,3,0,0,1-1.53.4H7.93Zm2.73-9a1,1,0,0,1-.74-.32A1,1,0,0,1,9.6,27a1,1,0,0,1,.32-.74,1,1,0,0,1,.74-.31,1,1,0,0,1,.75.31,1,1,0,0,1,.31.74,1,1,0,0,1-.31.74,1,1,0,0,1-.75.32m2.07,7.72h-1.2V34h1.2Zm2.76,0h-3V34h3ZM14.2,35.5V34.27L15,34v1.8ZM15,34h5a2.21,2.21,0,0,0,.91-.18,1.39,1.39,0,0,0,.61-.54,1.65,1.65,0,0,0,.21-.85,2.13,2.13,0,0,0-.4-1.39,1.31,1.31,0,0,0-1.07-.49,1.29,1.29,0,0,0-.76.23,1.57,1.57,0,0,0-.53.63,2.06,2.06,0,0,0-.19.91v3.49a2.76,2.76,0,0,0,.13.92,1.16,1.16,0,0,0,.44.59,1.34,1.34,0,0,0,.79.21,1.28,1.28,0,0,0,.75-.21,1.21,1.21,0,0,0,.45-.59,2.53,2.53,0,0,0,.15-.92V34h3.43v1.8H23.09v.29a4,4,0,0,1-.31,1.64,2.26,2.26,0,0,1-1,1.07,3.46,3.46,0,0,1-1.71.38,3,3,0,0,1-1.66-.43,2.83,2.83,0,0,1-1-1.2,4.16,4.16,0,0,1-.34-1.74V32.13a3.36,3.36,0,0,1,.4-1.67,3,3,0,0,1,1.11-1.16,3,3,0,0,1,4.34,1.27,4.18,4.18,0,0,1,.39,1.84,3.43,3.43,0,0,1-.43,1.72,3.34,3.34,0,0,1-1.21,1.21,3.48,3.48,0,0,1-1.73.44H15Zm12.67,1.8h-3V34h3ZM27.51,34v1.8l-.78-.28V34.27Zm6.54-1.61a6.71,6.71,0,0,0,.57,1.06,1.79,1.79,0,0,0,.41.44.86.86,0,0,0,.33.11v1.8H27.51V34h5.34a2.45,2.45,0,0,1-.25-.36c-.08-.16-.19-.35-.31-.58a2.12,2.12,0,0,1-.11-.21l-.11-.22A6.33,6.33,0,0,0,31,31.22a2.36,2.36,0,0,0-1.24-.59,3.32,3.32,0,0,0-1.7.26V29.24A4.21,4.21,0,0,1,30.43,29a4.06,4.06,0,0,1,2,1.08,7.71,7.71,0,0,1,1.61,2.26m-2.76,6.52a1,1,0,0,1-.74-.31,1,1,0,0,1-.32-.75A1.06,1.06,0,0,1,32,37.1a1,1,0,0,1,.31.73,1.06,1.06,0,0,1-1.06,1.06M36.46,34h5.37a.57.57,0,0,0,.37-.14.56.56,0,0,0,.17-.44v-7h1.79v7.63a1.71,1.71,0,0,1-.23.87,1.75,1.75,0,0,1-.62.62,1.71,1.71,0,0,1-.87.23h-6Zm4.11-7.36h-3v-1h3ZM39,26.15a2.14,2.14,0,0,1-1-.45,1.18,1.18,0,0,1-.39-.93,1.26,1.26,0,0,1,.37-.95,1.37,1.37,0,0,1,1-.35,1.36,1.36,0,0,1,1,.39A1.75,1.75,0,0,1,40.49,25h-.9a.64.64,0,0,0-.17-.39.47.47,0,0,0-.35-.14.5.5,0,0,0-.33.1.43.43,0,0,0-.12.33.8.8,0,0,0,.19.48,1.11,1.11,0,0,0,.58.39Zm-.85,1.17H40v8.46h-1.8ZM46,26.43h1.8v9.35H46Zm7.93,9.34a2.79,2.79,0,0,1-1.48-.42,3,3,0,0,1-1.08-1.12,3.12,3.12,0,0,1-.4-1.53v-.79a3.16,3.16,0,0,1,.39-1.55,2.77,2.77,0,0,1,1.1-1.1,3.14,3.14,0,0,1,1.55-.4h.15a3.13,3.13,0,0,1,1.54.4,2.75,2.75,0,0,1,1.09,1.1,3.06,3.06,0,0,1,.4,1.55v1.34l-1.8.78V31.91A1.24,1.24,0,0,0,55,31a1.21,1.21,0,0,0-.89-.35H54a1.28,1.28,0,0,0-.65.16,1.27,1.27,0,0,0-.44.45,1.28,1.28,0,0,0-.16.65v.79a1.23,1.23,0,0,0,.16.63,1.22,1.22,0,0,0,.44.46,1,1,0,0,0,.57.18Zm-2,1.24a7.43,7.43,0,0,0,2.06.18,1.85,1.85,0,0,0,1.09-.4,1.17,1.17,0,0,0,.31-.85V33.85l1.8-.78v3.31A2.38,2.38,0,0,1,56.52,38a3,3,0,0,1-1.82.88,6.94,6.94,0,0,1-2.82-.22Zm4.35-1.24H53.86V34h2.37Zm6.16-2.88v1.48a3.19,3.19,0,0,0,.4,1.62,2.94,2.94,0,0,0,1.12,1.12,3.29,3.29,0,0,0,1.64.4h0a3.26,3.26,0,0,0,1.63-.4A2.81,2.81,0,0,0,68.32,36a3.2,3.2,0,0,0,.41-1.62V33.23h1.81v1.14a5,5,0,0,1-.64,2.53,4.68,4.68,0,0,1-1.78,1.78,5.08,5.08,0,0,1-2.55.64h0A5,5,0,0,1,63,38.68a4.68,4.68,0,0,1-1.78-1.78,4.94,4.94,0,0,1-.65-2.53V32.89Zm2-1.46a3,3,0,0,1,.39-1.51,2.89,2.89,0,0,1,1.07-1.07,3,3,0,0,1,1.51-.39h.2a3,3,0,0,1,1.51.39,2.82,2.82,0,0,1,1.07,1.07,3,3,0,0,1,.39,1.51v2.66L69.4,35.35h-2A3,3,0,0,1,65.86,35a2.89,2.89,0,0,1-1.07-1.07,3,3,0,0,1-.39-1.51Zm1.7-3.69a1.06,1.06,0,0,1-.75-.31,1.07,1.07,0,1,1,1.49,0,1.05,1.05,0,0,1-.74.31m.1,4.64a1.13,1.13,0,0,0,.33.85,1.11,1.11,0,0,0,.84.33h1.37V31.43a1.1,1.1,0,0,0-1.17-1.17h-.2a1.21,1.21,0,0,0-.6.15,1,1,0,0,0-.42.41,1.2,1.2,0,0,0-.15.61ZM69,27.74a1.06,1.06,0,0,1-.75-.31,1.06,1.06,0,0,1,.75-1.8,1,1,0,0,1,.74.31,1,1,0,0,1,0,1.49,1,1,0,0,1-.74.31m6.16,9.33h.66a1.28,1.28,0,0,0,.63-.15,1.06,1.06,0,0,0,.42-.42,1.21,1.21,0,0,0,.16-.63V29.29h1.8v6.58a2.94,2.94,0,0,1-.4,1.53,2.85,2.85,0,0,1-1.08,1.07,3.06,3.06,0,0,1-1.53.4h-.66Zm8.07-1.3a2.79,2.79,0,0,1-1.48-.42,3.06,3.06,0,0,1-1.47-2.65v-.79a3.16,3.16,0,0,1,.39-1.55,2.75,2.75,0,0,1,1.09-1.1,3.17,3.17,0,0,1,1.55-.4h.15a3.1,3.1,0,0,1,1.54.4,2.84,2.84,0,0,1,1.1,1.1,3.16,3.16,0,0,1,.39,1.55v1.34L84.67,34V31.91a1.24,1.24,0,0,0-.35-.91,1.2,1.2,0,0,0-.89-.35h-.15a1.24,1.24,0,0,0-.64.16,1.21,1.21,0,0,0-.45.45,1.39,1.39,0,0,0-.16.65v.79a1.34,1.34,0,0,0,.16.63,1.3,1.3,0,0,0,.44.46,1,1,0,0,0,.57.18ZM81.2,37a7.46,7.46,0,0,0,2.06.18,1.82,1.82,0,0,0,1.09-.4,1.18,1.18,0,0,0,.32-.85V33.85l1.79-.78v3.31A2.33,2.33,0,0,1,85.84,38,3,3,0,0,1,84,38.9a7,7,0,0,1-2.83-.22Zm4.35-1.24H83.19V34h2.36Zm5.3,0h-3V34h3Zm1.39,0h-3V34h3Zm-.92-.28V34.27L92.1,34v1.8ZM92.1,34h.66a.56.56,0,0,0,.36-.14.55.55,0,0,0,.16-.44v-7h1.8v7.63a1.74,1.74,0,0,1-.86,1.5,1.8,1.8,0,0,1-.86.22H92.1Zm4.77-7.55h1.8v9.35h-1.8Zm8.84,9.34a2.76,2.76,0,0,1-1.48-.42,3,3,0,0,1-1.08-1.12,3,3,0,0,1-.4-1.53v-.79a3.16,3.16,0,0,1,.39-1.55,2.75,2.75,0,0,1,1.09-1.1,3.18,3.18,0,0,1,1.56-.4h.14a3.14,3.14,0,0,1,1.55.4,2.81,2.81,0,0,1,1.09,1.1,3.06,3.06,0,0,1,.4,1.55v1.34l-1.8.78V31.91a1.28,1.28,0,0,0-.34-.91,1.22,1.22,0,0,0-.9-.35h-.14a1.25,1.25,0,0,0-.65.16,1.19,1.19,0,0,0-.44.45,1.28,1.28,0,0,0-.16.65v.79a1.23,1.23,0,0,0,.16.63,1.27,1.27,0,0,0,.43.46,1.07,1.07,0,0,0,.58.18Zm-2,1.24a7.5,7.5,0,0,0,2.07.18,1.81,1.81,0,0,0,1.08-.4,1.18,1.18,0,0,0,.32-.85V33.85l1.8-.78v3.31a2.34,2.34,0,0,1-.63,1.64,3,3,0,0,1-1.81.88,7,7,0,0,1-2.83-.22Zm4.35-1.24h-2.36V34h2.36Zm6.6-3.13v2.59a2.22,2.22,0,0,0,.29,1.16,2,2,0,0,0,.79.79,2.39,2.39,0,0,0,1.15.28H117a2.31,2.31,0,0,0,1.15-.29,2.09,2.09,0,0,0,.8-.79,2.36,2.36,0,0,0,.28-1.15V32.78H121v2.45a4.09,4.09,0,0,1-.53,2.05A3.93,3.93,0,0,1,119,38.72a4.09,4.09,0,0,1-2,.52h-.09a4,4,0,0,1-2-.52,3.78,3.78,0,0,1-1.45-1.44,4.19,4.19,0,0,1-.52-2.05V32.64Zm.64,9.34a1,1,0,0,1-.75-.31,1,1,0,0,1,0-1.48,1,1,0,0,1,.75-.32,1,1,0,0,1,.74.32,1.05,1.05,0,0,1-.74,1.79m2.86,0a1.06,1.06,0,0,1,0-2.11,1,1,0,0,1,.75.32,1,1,0,0,1,0,1.48,1,1,0,0,1-.75.31m1-7.34V31.87a3,3,0,0,1,.39-1.51,2.86,2.86,0,0,1,1.06-1.07,2.94,2.94,0,0,1,1.5-.39h2.66v6.88H123V30.69h-.86a1.21,1.21,0,0,0-.6.15,1,1,0,0,0-.4.41,1.26,1.26,0,0,0-.15.62v2.77Zm7.2,1.14h-1.9V34h1.9Zm2.81,0h-3V34h3Zm-.34-1.8h1.25a.54.54,0,0,0,.36-.14.55.55,0,0,0,.16-.44v-4h1.79v4.65a1.75,1.75,0,0,1-.23.88,1.68,1.68,0,0,1-.62.62,1.81,1.81,0,0,1-.87.22h-1.84Zm2.53-5.44a1,1,0,0,1-.75-.31,1,1,0,0,1,0-1.48,1,1,0,0,1,1.49,0,1,1,0,0,1,0,1.48,1,1,0,0,1-.74.31m2.71-2.11h1.8v9.35h-1.8Zm-61.83,0h1.79v9.35H72.28Zm68.14,9.34a2.75,2.75,0,0,1-1.47-.42,3,3,0,0,1-1.08-1.12,3,3,0,0,1-.4-1.53v-.79a3.16,3.16,0,0,1,.39-1.55,2.77,2.77,0,0,1,1.1-1.1,3.11,3.11,0,0,1,1.55-.4h.14a3.14,3.14,0,0,1,1.55.4,2.81,2.81,0,0,1,1.09,1.1,3.06,3.06,0,0,1,.4,1.55v1.34l-1.8.78V31.91a1.28,1.28,0,0,0-.34-.91,1.22,1.22,0,0,0-.9-.35h-.14a1.25,1.25,0,0,0-.65.16,1.19,1.19,0,0,0-.44.45,1.28,1.28,0,0,0-.16.65v.79a1.23,1.23,0,0,0,.16.63,1.27,1.27,0,0,0,.43.46,1.06,1.06,0,0,0,.57.18Zm-2,1.24a7.5,7.5,0,0,0,2.07.18,1.81,1.81,0,0,0,1.08-.4,1.18,1.18,0,0,0,.32-.85V33.85l1.8-.78v3.31a2.34,2.34,0,0,1-.63,1.64,3,3,0,0,1-1.81.88,7,7,0,0,1-2.83-.22Zm4.35-1.24h-2.36V34h2.36ZM145,34h5.37a.61.61,0,0,0,.37-.14.55.55,0,0,0,.16-.44v-7h1.79v7.63a1.71,1.71,0,0,1-.23.87,1.68,1.68,0,0,1-.62.62,1.71,1.71,0,0,1-.87.23h-6Zm4.11-7.36h-3v-1h3Zm-1.55-.47a2.15,2.15,0,0,1-.95-.45,1.18,1.18,0,0,1-.39-.93,1.29,1.29,0,0,1,.36-.95,1.58,1.58,0,0,1,2,0,1.75,1.75,0,0,1,.42,1.12h-.9a.6.6,0,0,0-.18-.39.46.46,0,0,0-.35-.14.47.47,0,0,0-.32.1.43.43,0,0,0-.12.33.85.85,0,0,0,.18.48,1.15,1.15,0,0,0,.58.39Zm-.84,1.17h1.79v8.46h-1.79Zm-54.88-.7h-3v-1h3Zm-1.54-.47a2.1,2.1,0,0,1-1-.45,1.18,1.18,0,0,1-.39-.93,1.29,1.29,0,0,1,.36-.95,1.58,1.58,0,0,1,2,0A1.69,1.69,0,0,1,91.8,25h-.9a.55.55,0,0,0-.17-.39.53.53,0,0,0-.67,0,.43.43,0,0,0-.12.33.85.85,0,0,0,.18.48,1.11,1.11,0,0,0,.58.39Zm-.85,1.17h1.8v8.46h-1.8Zm65-.89h1.8v9.35h-1.8Zm8.83,9.34a2.75,2.75,0,0,1-1.47-.42,3,3,0,0,1-1.08-1.12,3,3,0,0,1-.4-1.53v-.79a3.16,3.16,0,0,1,.39-1.55,2.75,2.75,0,0,1,1.09-1.1,3.17,3.17,0,0,1,1.55-.4h.15a3.14,3.14,0,0,1,1.55.4,2.81,2.81,0,0,1,1.09,1.1,3.17,3.17,0,0,1,.4,1.55v1.34l-1.8.78V31.91a1.28,1.28,0,0,0-.34-.91,1.22,1.22,0,0,0-.9-.35h-.15a1.24,1.24,0,0,0-.64.16,1.12,1.12,0,0,0-.44.45,1.28,1.28,0,0,0-.16.65v.79a1.23,1.23,0,0,0,.16.63,1.19,1.19,0,0,0,.43.46,1.06,1.06,0,0,0,.57.18Zm-2,1.24a7.46,7.46,0,0,0,2.06.18,1.82,1.82,0,0,0,1.09-.4,1.18,1.18,0,0,0,.32-.85V33.85l1.8-.78v3.31A2.34,2.34,0,0,1,166,38a3,3,0,0,1-1.81.88,7,7,0,0,1-2.83-.22Zm4.35-1.24h-2.36V34h2.36Z"/></svg>